<?xml version="1.0" encoding="utf-8"?>
<svg style="enable-background:new 0 0 369.4 286.4;" version="1.1" viewBox="0 0 369.4 286.4" x="0px" xml:space="preserve" xmlns:xlink="http://www.w3.org/1999/xlink" xmlns="http://www.w3.org/2000/svg" y="0px">
  <style type="text/css">
    .st0 {
      display: none;
    }
    .st1 {
      display: inline;
    }
    .st2,
    .st3,
    .st4,
    .st7,
    .st8 {
      stroke: #000000;
      stroke-linecap: round;
      stroke-linejoin: round;
      stroke-miterlimit: 10;
    }

    .st2 {
      fill: rgb(135, 237, 153);
      stroke-width: 4;

    }
    .st3 {
      fill: rgb(135, 237, 153);
      stroke-width: 6;
    }
    .st4 {
      fill: rgb(135, 237, 153);
      stroke-width: 4;
    }
    .st5 {
      fill: url(#SVGID_1_);
    }
    .st6 {
      fill: #8ECC92;
    }
    .st7 {
      fill: #FFFFFF;
      stroke-width: 6;
    }
    .st8 {
      fill: #F29EC4;
      stroke-width: 6;
    }
  </style>
  <g id="Layer_1">
    <path class="st2" d="M8.7,214.2l14-6.6c-7.1,10-5.9,15.7-6.1,22l12.2-6c-2.4,6.5-2.2,10.9-1.4,17.7l8.4-7.7c-1.2,4.2,0,12.6,0,12.6
C24.2,249.5,5.8,228.7,8.7,214.2"/>
    <path class="st3" d="M42.5,248.5c-30.3-7.2-37.3-46.3-37.3-46.3s-15.2,47.6,34.3,78.2" id="Tail"/>
    <path class="st4"
      d="M42.5,222.1c-2.7-0.8-3.1-2.8-7.9-6.2c4.9-1.8,6.3-4.6,9.6-8.2l-14.9-9.2c5.7-1.3,10.2-4,13.2-8.7
c-4-1.9-10.1-4.7-17.9-8.3c7-1.8,12.6-5.7,16.9-11.4c-5.8-1.4-11.4-4.1-16.9-8.6c6.1-2.7,10.9-6.6,14.3-12c-5-1.7-10.2-5.8-16.2-14
c7.5-1,12.5-4.2,16.2-8.5l-16.2-10.8c6.3-1.8,11.7-5.2,16.2-10.3c-4-5.4-6.9-12.3-8.9-20.3c5,2.1,9.7,1.8,14.3,0.1
c-2.9-6.6-3.8-13.6-1.7-21.1c4.5,3,9.3,4.7,14.4,5v-17c4.5,3.4,9.3,5.7,14.6,6.7c-0.1-2.8-0.1-10.5,4.5-19.7
c2.2,4.5,5.3,9,9.3,13.4c2.6-9,5.7-15.2,9.1-17.7c1.9,4.8,4.8,9.2,9,12.9c1.2-6,3.4-11.6,7.3-16.5c5.3,6.7,6.5,11.8,7,15
c5.4-6.1,9.2-11.9,10.4-17.3c8,5.7,9.6,12.6,11.2,17.1L42.5,222.1z"/>
    <linearGradient gradientUnits="userSpaceOnUse" id="SVGID_1_" x1="119.9341" x2="120.1179" y1="275.4495" y2="285.9781">
      <stop offset="0.3611" style="stop-color:rgb(135, 237, 153)"/>
      <stop offset="1" style="stop-color:rgb(135, 237, 153);stop-opacity:0"/>
    </linearGradient>
    <polygon class="st5" points="37.6,276.9 202.3,274.4 202.6,284.5 37.6,286.4 	"/>
    <path class="st3" d="M39.5,280.4c0,0,7.8-65.8,3.3-100.4s-6.3-77.6,1.4-94.5s38.3-41.7,86.6-39.1s64.5,7.8,76.3,39.1
c5.1,35.8,0.1,66.4,0.1,66.4l9.8,0.7c0,0,7,30-22.3,52.2c3.3,15.6,8.5,69.8,8.5,69.8" id="Body_1_"/>
    <g>
      <g>
        <path d="M73.5,165.8c33-3.8,66.2-6.9,99.4-9.1c12.1-0.8,24.1-1.4,36.2-1.6c3.2,0,3.2-5,0-5c-41.4,0.6-82.9,5-124,9.4
c-3.9,0.4-7.7,0.8-11.6,1.3C70.3,161.2,70.3,166.2,73.5,165.8L73.5,165.8z"/>
      </g>
    </g>
    <ellipse cx="90.1" cy="126.9" rx="10.8" ry="13.4"/>
    <ellipse cx="180.3" cy="132.9" rx="8.1" ry="8"/>
    <path class="st6" d="M42.5,280.4"/>
  </g>
  <g id="Layer_2">
    <path class="st7" d="M267.7,80.3c0,0,7.2-6.5,9.1-11.7c0,0-15-39.8,22.2-58s58,1.3,61.9,9.1s15,41.1-13,60.6s-44.3,16.3-64.5,2.6
L267.7,80.3z"/>
    <path class="st8" d="M316.6,71.8c0,0-13.4-22.9-13.4-32.2c0-24.2,21-8.7,15.5,12.3c5.7-18.5,24-21.8,24-15.9
c0.7,7.2-0.3,13.1-5.9,18.9C331.3,60.7,316.6,71.8,316.6,71.8z"/>
  </g>
</svg>
